<?xml version="1.0" encoding="UTF-8" standalone="no"?>
<!DOCTYPE svg PUBLIC "-//W3C//DTD SVG 1.1//EN"
 "http://www.w3.org/Graphics/SVG/1.1/DTD/svg11.dtd">
<!-- Generated by graphviz version 2.43.0 (0)
 -->
<!-- Title: %3 Pages: 1 -->
<svg width="1880pt" height="548pt"
 viewBox="0.00 0.00 1879.66 548.00" xmlns="http://www.w3.org/2000/svg" xmlns:xlink="http://www.w3.org/1999/xlink">
<g id="graph0" class="graph" transform="scale(1 1) rotate(0) translate(4 544)">
<title>%3</title>
<polygon fill="white" stroke="transparent" points="-4,4 -4,-544 1875.66,-544 1875.66,4 -4,4"/>
<!-- [root] azurerm_availability_set.http -->
<g id="node1" class="node">
<title>[root] azurerm_availability_set.http</title>
<polygon fill="none" stroke="black" points="513.2,-324 333.87,-324 333.87,-288 513.2,-288 513.2,-324"/>
<text text-anchor="middle" x="423.53" y="-301.8" font-family="Times,serif" font-size="14.00">azurerm_availability_set.http</text>
</g>
<!-- [root] azurerm_resource_group.generic -->
<g id="node14" class="node">
<title>[root] azurerm_resource_group.generic</title>
<polygon fill="none" stroke="black" points="1068.66,-108 868.41,-108 868.41,-72 1068.66,-72 1068.66,-108"/>
<text text-anchor="middle" x="968.53" y="-85.8" font-family="Times,serif" font-size="14.00">azurerm_resource_group.generic</text>
</g>
<!-- [root] azurerm_availability_set.http&#45;&gt;[root] azurerm_resource_group.generic -->
<g id="edge1" class="edge">
<title>[root] azurerm_availability_set.http&#45;&gt;[root] azurerm_resource_group.generic</title>
<path fill="none" stroke="black" d="M443.78,-287.97C467.76,-268.47 509.52,-236.57 549.53,-216 651.76,-163.45 779.64,-129.33 867.06,-110.23"/>
<polygon fill="black" stroke="black" points="867.95,-113.62 876.98,-108.09 866.47,-106.78 867.95,-113.62"/>
</g>
<!-- [root] azurerm_lb.http -->
<g id="node2" class="node">
<title>[root] azurerm_lb.http</title>
<polygon fill="none" stroke="black" points="1491.06,-252 1386.01,-252 1386.01,-216 1491.06,-216 1491.06,-252"/>
<text text-anchor="middle" x="1438.53" y="-229.8" font-family="Times,serif" font-size="14.00">azurerm_lb.http</text>
</g>
<!-- [root] azurerm_public_ip.httplb -->
<g id="node13" class="node">
<title>[root] azurerm_public_ip.httplb</title>
<polygon fill="none" stroke="black" points="1461.44,-180 1303.63,-180 1303.63,-144 1461.44,-144 1461.44,-180"/>
<text text-anchor="middle" x="1382.53" y="-157.8" font-family="Times,serif" font-size="14.00">azurerm_public_ip.httplb</text>
</g>
<!-- [root] azurerm_lb.http&#45;&gt;[root] azurerm_public_ip.httplb -->
<g id="edge2" class="edge">
<title>[root] azurerm_lb.http&#45;&gt;[root] azurerm_public_ip.httplb</title>
<path fill="none" stroke="black" d="M1424.69,-215.7C1418.04,-207.39 1409.95,-197.28 1402.65,-188.14"/>
<polygon fill="black" stroke="black" points="1405.2,-185.73 1396.22,-180.1 1399.73,-190.1 1405.2,-185.73"/>
</g>
<!-- [root] azurerm_lb_backend_address_pool.http -->
<g id="node3" class="node">
<title>[root] azurerm_lb_backend_address_pool.http</title>
<polygon fill="none" stroke="black" points="1402.08,-324 1162.99,-324 1162.99,-288 1402.08,-288 1402.08,-324"/>
<text text-anchor="middle" x="1282.53" y="-301.8" font-family="Times,serif" font-size="14.00">azurerm_lb_backend_address_pool.http</text>
</g>
<!-- [root] azurerm_lb_backend_address_pool.http&#45;&gt;[root] azurerm_lb.http -->
<g id="edge3" class="edge">
<title>[root] azurerm_lb_backend_address_pool.http&#45;&gt;[root] azurerm_lb.http</title>
<path fill="none" stroke="black" d="M1320.7,-287.88C1341.93,-278.35 1368.54,-266.41 1391.1,-256.28"/>
<polygon fill="black" stroke="black" points="1392.8,-259.36 1400.5,-252.07 1389.94,-252.97 1392.8,-259.36"/>
</g>
<!-- [root] azurerm_lb_probe.http -->
<g id="node4" class="node">
<title>[root] azurerm_lb_probe.http</title>
<polygon fill="none" stroke="black" points="1570.43,-396 1426.63,-396 1426.63,-360 1570.43,-360 1570.43,-396"/>
<text text-anchor="middle" x="1498.53" y="-373.8" font-family="Times,serif" font-size="14.00">azurerm_lb_probe.http</text>
</g>
<!-- [root] azurerm_lb_probe.http&#45;&gt;[root] azurerm_lb.http -->
<g id="edge4" class="edge">
<title>[root] azurerm_lb_probe.http&#45;&gt;[root] azurerm_lb.http</title>
<path fill="none" stroke="black" d="M1491.3,-359.87C1480.98,-335.46 1461.95,-290.43 1449.79,-261.64"/>
<polygon fill="black" stroke="black" points="1452.91,-260.04 1445.8,-252.19 1446.46,-262.76 1452.91,-260.04"/>
</g>
<!-- [root] azurerm_lb_rule.http -->
<g id="node5" class="node">
<title>[root] azurerm_lb_rule.http</title>
<polygon fill="none" stroke="black" points="1408.32,-396 1274.74,-396 1274.74,-360 1408.32,-360 1408.32,-396"/>
<text text-anchor="middle" x="1341.53" y="-373.8" font-family="Times,serif" font-size="14.00">azurerm_lb_rule.http</text>
</g>
<!-- [root] azurerm_lb_rule.http&#45;&gt;[root] azurerm_lb_backend_address_pool.http -->
<g id="edge5" class="edge">
<title>[root] azurerm_lb_rule.http&#45;&gt;[root] azurerm_lb_backend_address_pool.http</title>
<path fill="none" stroke="black" d="M1326.95,-359.7C1319.88,-351.3 1311.25,-341.07 1303.49,-331.86"/>
<polygon fill="black" stroke="black" points="1306.07,-329.49 1296.95,-324.1 1300.72,-334.01 1306.07,-329.49"/>
</g>
<!-- [root] azurerm_network_interface.http -->
<g id="node6" class="node">
<title>[root] azurerm_network_interface.http</title>
<polygon fill="none" stroke="black" points="730.5,-324 534.56,-324 534.56,-288 730.5,-288 730.5,-324"/>
<text text-anchor="middle" x="632.53" y="-301.8" font-family="Times,serif" font-size="14.00">azurerm_network_interface.http</text>
</g>
<!-- [root] azurerm_network_security_group.http -->
<g id="node10" class="node">
<title>[root] azurerm_network_security_group.http</title>
<polygon fill="none" stroke="black" points="955.02,-252 724.04,-252 724.04,-216 955.02,-216 955.02,-252"/>
<text text-anchor="middle" x="839.53" y="-229.8" font-family="Times,serif" font-size="14.00">azurerm_network_security_group.http</text>
</g>
<!-- [root] azurerm_network_interface.http&#45;&gt;[root] azurerm_network_security_group.http -->
<g id="edge6" class="edge">
<title>[root] azurerm_network_interface.http&#45;&gt;[root] azurerm_network_security_group.http</title>
<path fill="none" stroke="black" d="M682.91,-287.97C711.95,-278.14 748.66,-265.73 779.24,-255.39"/>
<polygon fill="black" stroke="black" points="780.58,-258.63 788.93,-252.11 778.34,-252 780.58,-258.63"/>
</g>
<!-- [root] azurerm_public_ip.http -->
<g id="node11" class="node">
<title>[root] azurerm_public_ip.http</title>
<polygon fill="none" stroke="black" points="706.05,-252 559.02,-252 559.02,-216 706.05,-216 706.05,-252"/>
<text text-anchor="middle" x="632.53" y="-229.8" font-family="Times,serif" font-size="14.00">azurerm_public_ip.http</text>
</g>
<!-- [root] azurerm_network_interface.http&#45;&gt;[root] azurerm_public_ip.http -->
<g id="edge7" class="edge">
<title>[root] azurerm_network_interface.http&#45;&gt;[root] azurerm_public_ip.http</title>
<path fill="none" stroke="black" d="M632.53,-287.7C632.53,-279.98 632.53,-270.71 632.53,-262.11"/>
<polygon fill="black" stroke="black" points="636.03,-262.1 632.53,-252.1 629.03,-262.1 636.03,-262.1"/>
</g>
<!-- [root] azurerm_subnet.http -->
<g id="node16" class="node">
<title>[root] azurerm_subnet.http</title>
<polygon fill="none" stroke="black" points="1103.72,-252 973.35,-252 973.35,-216 1103.72,-216 1103.72,-252"/>
<text text-anchor="middle" x="1038.53" y="-229.8" font-family="Times,serif" font-size="14.00">azurerm_subnet.http</text>
</g>
<!-- [root] azurerm_network_interface.http&#45;&gt;[root] azurerm_subnet.http -->
<g id="edge8" class="edge">
<title>[root] azurerm_network_interface.http&#45;&gt;[root] azurerm_subnet.http</title>
<path fill="none" stroke="black" d="M730.86,-289.33C815.14,-275.89 927.43,-257.96 963.19,-251.85"/>
<polygon fill="black" stroke="black" points="963.91,-255.28 973.14,-250.08 962.68,-248.39 963.91,-255.28"/>
</g>
<!-- [root] azurerm_network_interface.http1 -->
<g id="node7" class="node">
<title>[root] azurerm_network_interface.http1</title>
<polygon fill="none" stroke="black" points="1140,-324 937.06,-324 937.06,-288 1140,-288 1140,-324"/>
<text text-anchor="middle" x="1038.53" y="-301.8" font-family="Times,serif" font-size="14.00">azurerm_network_interface.http1</text>
</g>
<!-- [root] azurerm_network_interface.http1&#45;&gt;[root] azurerm_network_security_group.http -->
<g id="edge9" class="edge">
<title>[root] azurerm_network_interface.http1&#45;&gt;[root] azurerm_network_security_group.http</title>
<path fill="none" stroke="black" d="M990.11,-287.97C962.3,-278.19 927.2,-265.84 897.88,-255.52"/>
<polygon fill="black" stroke="black" points="898.77,-252.13 888.18,-252.11 896.45,-258.73 898.77,-252.13"/>
</g>
<!-- [root] azurerm_public_ip.http1 -->
<g id="node12" class="node">
<title>[root] azurerm_public_ip.http1</title>
<polygon fill="none" stroke="black" points="1241.55,-180 1087.52,-180 1087.52,-144 1241.55,-144 1241.55,-180"/>
<text text-anchor="middle" x="1164.53" y="-157.8" font-family="Times,serif" font-size="14.00">azurerm_public_ip.http1</text>
</g>
<!-- [root] azurerm_network_interface.http1&#45;&gt;[root] azurerm_public_ip.http1 -->
<g id="edge10" class="edge">
<title>[root] azurerm_network_interface.http1&#45;&gt;[root] azurerm_public_ip.http1</title>
<path fill="none" stroke="black" d="M1068.18,-287.89C1082.7,-278.54 1099.76,-266.02 1112.53,-252 1129.57,-233.3 1143.65,-208.12 1152.84,-189.31"/>
<polygon fill="black" stroke="black" points="1156.07,-190.66 1157.19,-180.12 1149.75,-187.66 1156.07,-190.66"/>
</g>
<!-- [root] azurerm_network_interface.http1&#45;&gt;[root] azurerm_subnet.http -->
<g id="edge11" class="edge">
<title>[root] azurerm_network_interface.http1&#45;&gt;[root] azurerm_subnet.http</title>
<path fill="none" stroke="black" d="M1038.53,-287.7C1038.53,-279.98 1038.53,-270.71 1038.53,-262.11"/>
<polygon fill="black" stroke="black" points="1042.03,-262.1 1038.53,-252.1 1035.03,-262.1 1042.03,-262.1"/>
</g>
<!-- [root] azurerm_network_interface_backend_address_pool_association.http -->
<g id="node8" class="node">
<title>[root] azurerm_network_interface_backend_address_pool_association.http</title>
<polygon fill="none" stroke="black" points="832.23,-396 432.84,-396 432.84,-360 832.23,-360 832.23,-396"/>
<text text-anchor="middle" x="632.53" y="-373.8" font-family="Times,serif" font-size="14.00">azurerm_network_interface_backend_address_pool_association.http</text>
</g>
<!-- [root] azurerm_network_interface_backend_address_pool_association.http&#45;&gt;[root] azurerm_lb_backend_address_pool.http -->
<g id="edge12" class="edge">
<title>[root] azurerm_network_interface_backend_address_pool_association.http&#45;&gt;[root] azurerm_lb_backend_address_pool.http</title>
<path fill="none" stroke="black" d="M808.48,-359.98C908.29,-350.06 1035.47,-336.98 1148.53,-324 1149.84,-323.85 1151.16,-323.7 1152.49,-323.54"/>
<polygon fill="black" stroke="black" points="1153.21,-326.98 1162.74,-322.34 1152.4,-320.03 1153.21,-326.98"/>
</g>
<!-- [root] azurerm_network_interface_backend_address_pool_association.http&#45;&gt;[root] azurerm_network_interface.http -->
<g id="edge13" class="edge">
<title>[root] azurerm_network_interface_backend_address_pool_association.http&#45;&gt;[root] azurerm_network_interface.http</title>
<path fill="none" stroke="black" d="M632.53,-359.7C632.53,-351.98 632.53,-342.71 632.53,-334.11"/>
<polygon fill="black" stroke="black" points="636.03,-334.1 632.53,-324.1 629.03,-334.1 636.03,-334.1"/>
</g>
<!-- [root] azurerm_network_interface_backend_address_pool_association.http1 -->
<g id="node9" class="node">
<title>[root] azurerm_network_interface_backend_address_pool_association.http1</title>
<polygon fill="none" stroke="black" points="1256.73,-396 850.34,-396 850.34,-360 1256.73,-360 1256.73,-396"/>
<text text-anchor="middle" x="1053.53" y="-373.8" font-family="Times,serif" font-size="14.00">azurerm_network_interface_backend_address_pool_association.http1</text>
</g>
<!-- [root] azurerm_network_interface_backend_address_pool_association.http1&#45;&gt;[root] azurerm_lb_backend_address_pool.http -->
<g id="edge14" class="edge">
<title>[root] azurerm_network_interface_backend_address_pool_association.http1&#45;&gt;[root] azurerm_lb_backend_address_pool.http</title>
<path fill="none" stroke="black" d="M1109.26,-359.97C1141.67,-350.06 1182.71,-337.51 1216.71,-327.12"/>
<polygon fill="black" stroke="black" points="1218.02,-330.38 1226.56,-324.11 1215.97,-323.69 1218.02,-330.38"/>
</g>
<!-- [root] azurerm_network_interface_backend_address_pool_association.http1&#45;&gt;[root] azurerm_network_interface.http1 -->
<g id="edge15" class="edge">
<title>[root] azurerm_network_interface_backend_address_pool_association.http1&#45;&gt;[root] azurerm_network_interface.http1</title>
<path fill="none" stroke="black" d="M1049.83,-359.7C1048.17,-351.98 1046.19,-342.71 1044.34,-334.11"/>
<polygon fill="black" stroke="black" points="1047.72,-333.15 1042.2,-324.1 1040.87,-334.62 1047.72,-333.15"/>
</g>
<!-- [root] azurerm_network_security_group.http&#45;&gt;[root] azurerm_resource_group.generic -->
<g id="edge16" class="edge">
<title>[root] azurerm_network_security_group.http&#45;&gt;[root] azurerm_resource_group.generic</title>
<path fill="none" stroke="black" d="M838.91,-215.73C839.11,-196.3 842.23,-164.75 858.53,-144 869.21,-130.42 884.24,-120.11 899.76,-112.37"/>
<polygon fill="black" stroke="black" points="901.34,-115.49 908.93,-108.1 898.39,-109.15 901.34,-115.49"/>
</g>
<!-- [root] azurerm_public_ip.http&#45;&gt;[root] azurerm_resource_group.generic -->
<g id="edge17" class="edge">
<title>[root] azurerm_public_ip.http&#45;&gt;[root] azurerm_resource_group.generic</title>
<path fill="none" stroke="black" d="M671.75,-215.91C713.32,-197.85 780.93,-168.63 839.53,-144 865.04,-133.28 893.47,-121.57 917.14,-111.89"/>
<polygon fill="black" stroke="black" points="918.7,-115.04 926.63,-108.01 916.05,-108.56 918.7,-115.04"/>
</g>
<!-- [root] azurerm_public_ip.http1&#45;&gt;[root] azurerm_resource_group.generic -->
<g id="edge18" class="edge">
<title>[root] azurerm_public_ip.http1&#45;&gt;[root] azurerm_resource_group.generic</title>
<path fill="none" stroke="black" d="M1116.84,-143.97C1089.45,-134.19 1054.88,-121.84 1026,-111.52"/>
<polygon fill="black" stroke="black" points="1027.04,-108.18 1016.44,-108.11 1024.68,-114.77 1027.04,-108.18"/>
</g>
<!-- [root] azurerm_public_ip.httplb&#45;&gt;[root] azurerm_resource_group.generic -->
<g id="edge19" class="edge">
<title>[root] azurerm_public_ip.httplb&#45;&gt;[root] azurerm_resource_group.generic</title>
<path fill="none" stroke="black" d="M1303.2,-147.59C1239.65,-136.84 1149.75,-121.64 1079.13,-109.7"/>
<polygon fill="black" stroke="black" points="1079.3,-106.18 1068.85,-107.96 1078.13,-113.08 1079.3,-106.18"/>
</g>
<!-- [root] provider.azurerm -->
<g id="node24" class="node">
<title>[root] provider.azurerm</title>
<polygon fill="none" stroke="black" points="968.53,-36 868.4,-18 968.53,0 1068.67,-18 968.53,-36"/>
<text text-anchor="middle" x="968.53" y="-13.8" font-family="Times,serif" font-size="14.00">provider.azurerm</text>
</g>
<!-- [root] azurerm_resource_group.generic&#45;&gt;[root] provider.azurerm -->
<g id="edge20" class="edge">
<title>[root] azurerm_resource_group.generic&#45;&gt;[root] provider.azurerm</title>
<path fill="none" stroke="black" d="M968.53,-71.7C968.53,-63.98 968.53,-54.71 968.53,-46.11"/>
<polygon fill="black" stroke="black" points="972.03,-46.1 968.53,-36.1 965.03,-46.1 972.03,-46.1"/>
</g>
<!-- [root] azurerm_storage_account.http -->
<g id="node15" class="node">
<title>[root] azurerm_storage_account.http</title>
<polygon fill="none" stroke="black" points="316.13,-324 130.94,-324 130.94,-288 316.13,-288 316.13,-324"/>
<text text-anchor="middle" x="223.53" y="-301.8" font-family="Times,serif" font-size="14.00">azurerm_storage_account.http</text>
</g>
<!-- [root] random_id.randomId -->
<g id="node26" class="node">
<title>[root] random_id.randomId</title>
<polygon fill="none" stroke="black" points="290.62,-252 156.45,-252 156.45,-216 290.62,-216 290.62,-252"/>
<text text-anchor="middle" x="223.53" y="-229.8" font-family="Times,serif" font-size="14.00">random_id.randomId</text>
</g>
<!-- [root] azurerm_storage_account.http&#45;&gt;[root] random_id.randomId -->
<g id="edge21" class="edge">
<title>[root] azurerm_storage_account.http&#45;&gt;[root] random_id.randomId</title>
<path fill="none" stroke="black" d="M223.53,-287.7C223.53,-279.98 223.53,-270.71 223.53,-262.11"/>
<polygon fill="black" stroke="black" points="227.03,-262.1 223.53,-252.1 220.03,-262.1 227.03,-262.1"/>
</g>
<!-- [root] azurerm_virtual_network.generic -->
<g id="node19" class="node">
<title>[root] azurerm_virtual_network.generic</title>
<polygon fill="none" stroke="black" points="1070,-180 867.06,-180 867.06,-144 1070,-144 1070,-180"/>
<text text-anchor="middle" x="968.53" y="-157.8" font-family="Times,serif" font-size="14.00">azurerm_virtual_network.generic</text>
</g>
<!-- [root] azurerm_subnet.http&#45;&gt;[root] azurerm_virtual_network.generic -->
<g id="edge22" class="edge">
<title>[root] azurerm_subnet.http&#45;&gt;[root] azurerm_virtual_network.generic</title>
<path fill="none" stroke="black" d="M1021.23,-215.7C1012.67,-207.14 1002.19,-196.66 992.84,-187.3"/>
<polygon fill="black" stroke="black" points="995.18,-184.7 985.64,-180.1 990.23,-189.65 995.18,-184.7"/>
</g>
<!-- [root] azurerm_virtual_machine.http -->
<g id="node17" class="node">
<title>[root] azurerm_virtual_machine.http</title>
<polygon fill="none" stroke="black" points="204.13,-396 18.93,-396 18.93,-360 204.13,-360 204.13,-396"/>
<text text-anchor="middle" x="111.53" y="-373.8" font-family="Times,serif" font-size="14.00">azurerm_virtual_machine.http</text>
</g>
<!-- [root] azurerm_virtual_machine.http&#45;&gt;[root] azurerm_availability_set.http -->
<g id="edge23" class="edge">
<title>[root] azurerm_virtual_machine.http&#45;&gt;[root] azurerm_availability_set.http</title>
<path fill="none" stroke="black" d="M187.46,-359.97C232.84,-349.78 290.63,-336.82 337.67,-326.26"/>
<polygon fill="black" stroke="black" points="338.55,-329.65 347.54,-324.05 337.02,-322.82 338.55,-329.65"/>
</g>
<!-- [root] azurerm_virtual_machine.http&#45;&gt;[root] azurerm_network_interface.http -->
<g id="edge24" class="edge">
<title>[root] azurerm_virtual_machine.http&#45;&gt;[root] azurerm_network_interface.http</title>
<path fill="none" stroke="black" d="M204.34,-361.33C207.44,-360.87 210.51,-360.43 213.53,-360 350.43,-340.63 385.52,-342.56 522.53,-324 523.15,-323.92 523.76,-323.83 524.38,-323.75"/>
<polygon fill="black" stroke="black" points="525.08,-327.19 534.5,-322.34 524.12,-320.25 525.08,-327.19"/>
</g>
<!-- [root] azurerm_virtual_machine.http&#45;&gt;[root] azurerm_storage_account.http -->
<g id="edge25" class="edge">
<title>[root] azurerm_virtual_machine.http&#45;&gt;[root] azurerm_storage_account.http</title>
<path fill="none" stroke="black" d="M138.93,-359.88C153.44,-350.81 171.45,-339.55 187.12,-329.76"/>
<polygon fill="black" stroke="black" points="189.4,-332.46 196.03,-324.19 185.69,-326.52 189.4,-332.46"/>
</g>
<!-- [root] var.vm_name -->
<g id="node27" class="node">
<title>[root] var.vm_name</title>
<polygon fill="none" stroke="black" points="107.35,-324 21.72,-324 21.72,-288 113.35,-288 113.35,-318 107.35,-324"/>
<polyline fill="none" stroke="black" points="107.35,-324 107.35,-318 "/>
<polyline fill="none" stroke="black" points="113.35,-318 107.35,-318 "/>
<text text-anchor="middle" x="67.53" y="-301.8" font-family="Times,serif" font-size="14.00">var.vm_name</text>
</g>
<!-- [root] azurerm_virtual_machine.http&#45;&gt;[root] var.vm_name -->
<g id="edge26" class="edge">
<title>[root] azurerm_virtual_machine.http&#45;&gt;[root] var.vm_name</title>
<path fill="none" stroke="black" d="M100.66,-359.7C95.54,-351.56 89.34,-341.69 83.69,-332.7"/>
<polygon fill="black" stroke="black" points="86.57,-330.71 78.28,-324.1 80.64,-334.43 86.57,-330.71"/>
</g>
<!-- [root] azurerm_virtual_machine.http1 -->
<g id="node18" class="node">
<title>[root] azurerm_virtual_machine.http1</title>
<polygon fill="none" stroke="black" points="414.63,-396 222.43,-396 222.43,-360 414.63,-360 414.63,-396"/>
<text text-anchor="middle" x="318.53" y="-373.8" font-family="Times,serif" font-size="14.00">azurerm_virtual_machine.http1</text>
</g>
<!-- [root] azurerm_virtual_machine.http1&#45;&gt;[root] azurerm_availability_set.http -->
<g id="edge27" class="edge">
<title>[root] azurerm_virtual_machine.http1&#45;&gt;[root] azurerm_availability_set.http</title>
<path fill="none" stroke="black" d="M344.22,-359.88C357.82,-350.81 374.7,-339.55 389.39,-329.76"/>
<polygon fill="black" stroke="black" points="391.37,-332.65 397.75,-324.19 387.49,-326.82 391.37,-332.65"/>
</g>
<!-- [root] azurerm_virtual_machine.http1&#45;&gt;[root] azurerm_network_interface.http1 -->
<g id="edge28" class="edge">
<title>[root] azurerm_virtual_machine.http1&#45;&gt;[root] azurerm_network_interface.http1</title>
<path fill="none" stroke="black" d="M414.62,-361.14C417.62,-360.74 420.6,-360.36 423.53,-360 614.77,-336.59 663.61,-340.91 855.53,-324 878.62,-321.97 903.33,-319.72 926.89,-317.54"/>
<polygon fill="black" stroke="black" points="927.28,-321.02 936.91,-316.61 926.63,-314.05 927.28,-321.02"/>
</g>
<!-- [root] azurerm_virtual_machine.http1&#45;&gt;[root] azurerm_storage_account.http -->
<g id="edge29" class="edge">
<title>[root] azurerm_virtual_machine.http1&#45;&gt;[root] azurerm_storage_account.http</title>
<path fill="none" stroke="black" d="M295.05,-359.7C282.97,-350.8 268.08,-339.82 255.02,-330.2"/>
<polygon fill="black" stroke="black" points="256.87,-327.22 246.75,-324.1 252.72,-332.85 256.87,-327.22"/>
</g>
<!-- [root] var.vm_name1 -->
<g id="node28" class="node">
<title>[root] var.vm_name1</title>
<polygon fill="none" stroke="black" points="840.85,-324 748.22,-324 748.22,-288 846.85,-288 846.85,-318 840.85,-324"/>
<polyline fill="none" stroke="black" points="840.85,-324 840.85,-318 "/>
<polyline fill="none" stroke="black" points="846.85,-318 840.85,-318 "/>
<text text-anchor="middle" x="797.53" y="-301.8" font-family="Times,serif" font-size="14.00">var.vm_name1</text>
</g>
<!-- [root] azurerm_virtual_machine.http1&#45;&gt;[root] var.vm_name1 -->
<g id="edge30" class="edge">
<title>[root] azurerm_virtual_machine.http1&#45;&gt;[root] var.vm_name1</title>
<path fill="none" stroke="black" d="M414.64,-361.25C417.63,-360.82 420.61,-360.4 423.53,-360 560.28,-341.15 599.17,-351.47 737.84,-324.16"/>
<polygon fill="black" stroke="black" points="738.88,-327.52 748,-322.13 737.51,-320.66 738.88,-327.52"/>
</g>
<!-- [root] azurerm_virtual_network.generic&#45;&gt;[root] azurerm_resource_group.generic -->
<g id="edge31" class="edge">
<title>[root] azurerm_virtual_network.generic&#45;&gt;[root] azurerm_resource_group.generic</title>
<path fill="none" stroke="black" d="M968.53,-143.7C968.53,-135.98 968.53,-126.71 968.53,-118.11"/>
<polygon fill="black" stroke="black" points="972.03,-118.1 968.53,-108.1 965.03,-118.1 972.03,-118.1"/>
</g>
<!-- [root] output.lb_id -->
<g id="node20" class="node">
<title>[root] output.lb_id</title>
<polygon fill="none" stroke="black" points="1667.59,-324 1589.47,-324 1589.47,-288 1673.59,-288 1673.59,-318 1667.59,-324"/>
<polyline fill="none" stroke="black" points="1667.59,-324 1667.59,-318 "/>
<polyline fill="none" stroke="black" points="1673.59,-318 1667.59,-318 "/>
<text text-anchor="middle" x="1631.53" y="-301.8" font-family="Times,serif" font-size="14.00">output.lb_id</text>
</g>
<!-- [root] output.lb_id&#45;&gt;[root] azurerm_lb.http -->
<g id="edge42" class="edge">
<title>[root] output.lb_id&#45;&gt;[root] azurerm_lb.http</title>
<path fill="none" stroke="black" d="M1589.18,-289.64C1561.54,-279.62 1525.15,-266.42 1495.06,-255.5"/>
<polygon fill="black" stroke="black" points="1496.12,-252.16 1485.53,-252.04 1493.73,-258.74 1496.12,-252.16"/>
</g>
<!-- [root] output.resource_group_id -->
<g id="node21" class="node">
<title>[root] output.resource_group_id</title>
<polygon fill="none" stroke="black" points="1865.78,-180 1711.29,-180 1711.29,-144 1871.78,-144 1871.78,-174 1865.78,-180"/>
<polyline fill="none" stroke="black" points="1865.78,-180 1865.78,-174 "/>
<polyline fill="none" stroke="black" points="1871.78,-174 1865.78,-174 "/>
<text text-anchor="middle" x="1791.53" y="-157.8" font-family="Times,serif" font-size="14.00">output.resource_group_id</text>
</g>
<!-- [root] output.resource_group_id&#45;&gt;[root] azurerm_resource_group.generic -->
<g id="edge43" class="edge">
<title>[root] output.resource_group_id&#45;&gt;[root] azurerm_resource_group.generic</title>
<path fill="none" stroke="black" d="M1711.3,-147.96C1700.96,-146.5 1690.51,-145.13 1680.53,-144 1468.31,-119.89 1219.2,-104.22 1079.01,-96.56"/>
<polygon fill="black" stroke="black" points="1078.87,-93.05 1068.7,-96 1078.49,-100.03 1078.87,-93.05"/>
</g>
<!-- [root] output.resource_group_name -->
<g id="node22" class="node">
<title>[root] output.resource_group_name</title>
<polygon fill="none" stroke="black" points="1665.21,-180 1491.86,-180 1491.86,-144 1671.21,-144 1671.21,-174 1665.21,-180"/>
<polyline fill="none" stroke="black" points="1665.21,-180 1665.21,-174 "/>
<polyline fill="none" stroke="black" points="1671.21,-174 1665.21,-174 "/>
<text text-anchor="middle" x="1581.53" y="-157.8" font-family="Times,serif" font-size="14.00">output.resource_group_name</text>
</g>
<!-- [root] output.resource_group_name&#45;&gt;[root] azurerm_resource_group.generic -->
<g id="edge44" class="edge">
<title>[root] output.resource_group_name&#45;&gt;[root] azurerm_resource_group.generic</title>
<path fill="none" stroke="black" d="M1491.62,-146.87C1484.49,-145.86 1477.4,-144.89 1470.53,-144 1335.95,-126.6 1180.52,-110.86 1078.69,-101.14"/>
<polygon fill="black" stroke="black" points="1078.99,-97.65 1068.7,-100.18 1078.33,-104.62 1078.99,-97.65"/>
</g>
<!-- [root] output.subnet_id -->
<g id="node23" class="node">
<title>[root] output.subnet_id</title>
<polygon fill="none" stroke="black" points="1692.25,-396 1588.81,-396 1588.81,-360 1698.25,-360 1698.25,-390 1692.25,-396"/>
<polyline fill="none" stroke="black" points="1692.25,-396 1692.25,-390 "/>
<polyline fill="none" stroke="black" points="1698.25,-390 1692.25,-390 "/>
<text text-anchor="middle" x="1643.53" y="-373.8" font-family="Times,serif" font-size="14.00">output.subnet_id</text>
</g>
<!-- [root] output.subnet_id&#45;&gt;[root] azurerm_subnet.http -->
<g id="edge45" class="edge">
<title>[root] output.subnet_id&#45;&gt;[root] azurerm_subnet.http</title>
<path fill="none" stroke="black" d="M1606.61,-359.85C1561.54,-339.62 1482.52,-306.41 1411.53,-288 1310.19,-261.72 1189.76,-247.58 1113.73,-240.68"/>
<polygon fill="black" stroke="black" points="1114.03,-237.19 1103.76,-239.79 1113.41,-244.16 1114.03,-237.19"/>
</g>
<!-- [root] provider.random -->
<g id="node25" class="node">
<title>[root] provider.random</title>
<polygon fill="none" stroke="black" points="348.53,-180 251.42,-162 348.53,-144 445.65,-162 348.53,-180"/>
<text text-anchor="middle" x="348.53" y="-157.8" font-family="Times,serif" font-size="14.00">provider.random</text>
</g>
<!-- [root] random_id.randomId&#45;&gt;[root] azurerm_resource_group.generic -->
<g id="edge53" class="edge">
<title>[root] random_id.randomId&#45;&gt;[root] azurerm_resource_group.generic</title>
<path fill="none" stroke="black" d="M221.69,-215.95C220.53,-195.5 222.16,-161.75 242.53,-144 287.82,-104.55 666.18,-94.46 857.97,-91.89"/>
<polygon fill="black" stroke="black" points="858.13,-95.38 868.09,-91.75 858.04,-88.38 858.13,-95.38"/>
</g>
<!-- [root] random_id.randomId&#45;&gt;[root] provider.random -->
<g id="edge54" class="edge">
<title>[root] random_id.randomId&#45;&gt;[root] provider.random</title>
<path fill="none" stroke="black" d="M254.11,-215.88C273.12,-205.23 297.51,-191.57 316.74,-180.8"/>
<polygon fill="black" stroke="black" points="318.7,-183.72 325.72,-175.78 315.28,-177.61 318.7,-183.72"/>
</g>
<!-- [root] meta.count&#45;boundary (EachMode fixup) -->
<g id="node29" class="node">
<title>[root] meta.count&#45;boundary (EachMode fixup)</title>
<ellipse fill="none" stroke="black" cx="1341.53" cy="-450" rx="174.79" ry="18"/>
<text text-anchor="middle" x="1341.53" y="-445.8" font-family="Times,serif" font-size="14.00">[root] meta.count&#45;boundary (EachMode fixup)</text>
</g>
<!-- [root] meta.count&#45;boundary (EachMode fixup)&#45;&gt;[root] azurerm_lb_probe.http -->
<g id="edge32" class="edge">
<title>[root] meta.count&#45;boundary (EachMode fixup)&#45;&gt;[root] azurerm_lb_probe.http</title>
<path fill="none" stroke="black" d="M1378.74,-432.41C1400.34,-422.78 1427.77,-410.55 1450.93,-400.23"/>
<polygon fill="black" stroke="black" points="1452.52,-403.35 1460.23,-396.08 1449.67,-396.95 1452.52,-403.35"/>
</g>
<!-- [root] meta.count&#45;boundary (EachMode fixup)&#45;&gt;[root] azurerm_lb_rule.http -->
<g id="edge33" class="edge">
<title>[root] meta.count&#45;boundary (EachMode fixup)&#45;&gt;[root] azurerm_lb_rule.http</title>
<path fill="none" stroke="black" d="M1341.53,-431.7C1341.53,-423.98 1341.53,-414.71 1341.53,-406.11"/>
<polygon fill="black" stroke="black" points="1345.03,-406.1 1341.53,-396.1 1338.03,-406.1 1345.03,-406.1"/>
</g>
<!-- [root] meta.count&#45;boundary (EachMode fixup)&#45;&gt;[root] azurerm_network_interface_backend_address_pool_association.http -->
<g id="edge34" class="edge">
<title>[root] meta.count&#45;boundary (EachMode fixup)&#45;&gt;[root] azurerm_network_interface_backend_address_pool_association.http</title>
<path fill="none" stroke="black" d="M1220.05,-437.01C1108.71,-426.01 942.3,-409.58 814.98,-397.01"/>
<polygon fill="black" stroke="black" points="815.02,-393.5 804.72,-396 814.33,-400.47 815.02,-393.5"/>
</g>
<!-- [root] meta.count&#45;boundary (EachMode fixup)&#45;&gt;[root] azurerm_network_interface_backend_address_pool_association.http1 -->
<g id="edge35" class="edge">
<title>[root] meta.count&#45;boundary (EachMode fixup)&#45;&gt;[root] azurerm_network_interface_backend_address_pool_association.http1</title>
<path fill="none" stroke="black" d="M1276.54,-433.2C1234.11,-422.89 1178.43,-409.36 1133.32,-398.39"/>
<polygon fill="black" stroke="black" points="1134.12,-394.98 1123.57,-396.02 1132.46,-401.79 1134.12,-394.98"/>
</g>
<!-- [root] meta.count&#45;boundary (EachMode fixup)&#45;&gt;[root] azurerm_virtual_machine.http -->
<g id="edge36" class="edge">
<title>[root] meta.count&#45;boundary (EachMode fixup)&#45;&gt;[root] azurerm_virtual_machine.http</title>
<path fill="none" stroke="black" d="M1185.43,-441.9C897.43,-428.78 304.31,-401.6 214.49,-395.72"/>
<polygon fill="black" stroke="black" points="214.55,-392.21 204.31,-394.94 214.01,-399.19 214.55,-392.21"/>
</g>
<!-- [root] meta.count&#45;boundary (EachMode fixup)&#45;&gt;[root] azurerm_virtual_machine.http1 -->
<g id="edge37" class="edge">
<title>[root] meta.count&#45;boundary (EachMode fixup)&#45;&gt;[root] azurerm_virtual_machine.http1</title>
<path fill="none" stroke="black" d="M1185.07,-441.92C967.51,-431.74 583.4,-412.5 424.73,-396.04"/>
<polygon fill="black" stroke="black" points="424.92,-392.54 414.61,-394.96 424.18,-399.5 424.92,-392.54"/>
</g>
<!-- [root] meta.count&#45;boundary (EachMode fixup)&#45;&gt;[root] output.lb_id -->
<g id="edge38" class="edge">
<title>[root] meta.count&#45;boundary (EachMode fixup)&#45;&gt;[root] output.lb_id</title>
<path fill="none" stroke="black" d="M1510.83,-445.37C1593.74,-439.63 1681.32,-426.28 1707.53,-396 1718,-383.9 1714.93,-374.19 1707.53,-360 1701.07,-347.61 1690.23,-337.52 1678.74,-329.6"/>
<polygon fill="black" stroke="black" points="1680.62,-326.65 1670.31,-324.22 1676.85,-332.55 1680.62,-326.65"/>
</g>
<!-- [root] meta.count&#45;boundary (EachMode fixup)&#45;&gt;[root] output.resource_group_id -->
<g id="edge39" class="edge">
<title>[root] meta.count&#45;boundary (EachMode fixup)&#45;&gt;[root] output.resource_group_id</title>
<path fill="none" stroke="black" d="M1512.84,-446.45C1608.28,-441.32 1714.57,-428.21 1748.53,-396 1805.42,-342.05 1801.44,-239.29 1795.69,-190.3"/>
<polygon fill="black" stroke="black" points="1799.13,-189.62 1794.38,-180.15 1792.19,-190.51 1799.13,-189.62"/>
</g>
<!-- [root] meta.count&#45;boundary (EachMode fixup)&#45;&gt;[root] output.resource_group_name -->
<g id="edge40" class="edge">
<title>[root] meta.count&#45;boundary (EachMode fixup)&#45;&gt;[root] output.resource_group_name</title>
<path fill="none" stroke="black" d="M1513.61,-446.78C1602.17,-441.59 1697.37,-428.31 1725.53,-396 1785.68,-326.98 1673.91,-229.99 1614.79,-186.14"/>
<polygon fill="black" stroke="black" points="1616.62,-183.13 1606.48,-180.06 1612.49,-188.79 1616.62,-183.13"/>
</g>
<!-- [root] meta.count&#45;boundary (EachMode fixup)&#45;&gt;[root] output.subnet_id -->
<g id="edge41" class="edge">
<title>[root] meta.count&#45;boundary (EachMode fixup)&#45;&gt;[root] output.subnet_id</title>
<path fill="none" stroke="black" d="M1414.36,-433.58C1459.17,-423.91 1517.99,-410.88 1578.96,-396.09"/>
<polygon fill="black" stroke="black" points="1579.87,-399.47 1588.76,-393.71 1578.21,-392.67 1579.87,-399.47"/>
</g>
<!-- [root] provider.azurerm (close) -->
<g id="node30" class="node">
<title>[root] provider.azurerm (close)</title>
<ellipse fill="none" stroke="black" cx="830.53" cy="-450" rx="119.25" ry="18"/>
<text text-anchor="middle" x="830.53" y="-445.8" font-family="Times,serif" font-size="14.00">[root] provider.azurerm (close)</text>
</g>
<!-- [root] provider.azurerm (close)&#45;&gt;[root] azurerm_lb_probe.http -->
<g id="edge46" class="edge">
<title>[root] provider.azurerm (close)&#45;&gt;[root] azurerm_lb_probe.http</title>
<path fill="none" stroke="black" d="M940.53,-442.92C1056.57,-435.62 1244.86,-421.29 1416.64,-396.03"/>
<polygon fill="black" stroke="black" points="1417.25,-399.48 1426.62,-394.55 1416.22,-392.55 1417.25,-399.48"/>
</g>
<!-- [root] provider.azurerm (close)&#45;&gt;[root] azurerm_lb_rule.http -->
<g id="edge47" class="edge">
<title>[root] provider.azurerm (close)&#45;&gt;[root] azurerm_lb_rule.http</title>
<path fill="none" stroke="black" d="M928.98,-439.81C1015,-431.13 1143.38,-416.62 1264.29,-396.12"/>
<polygon fill="black" stroke="black" points="1265.2,-399.52 1274.47,-394.38 1264.02,-392.62 1265.2,-399.52"/>
</g>
<!-- [root] provider.azurerm (close)&#45;&gt;[root] azurerm_network_interface_backend_address_pool_association.http -->
<g id="edge48" class="edge">
<title>[root] provider.azurerm (close)&#45;&gt;[root] azurerm_network_interface_backend_address_pool_association.http</title>
<path fill="none" stroke="black" d="M786.1,-433.29C757.81,-423.29 720.87,-410.23 690.31,-399.43"/>
<polygon fill="black" stroke="black" points="691.22,-396.04 680.63,-396 688.89,-402.64 691.22,-396.04"/>
</g>
<!-- [root] provider.azurerm (close)&#45;&gt;[root] azurerm_network_interface_backend_address_pool_association.http1 -->
<g id="edge49" class="edge">
<title>[root] provider.azurerm (close)&#45;&gt;[root] azurerm_network_interface_backend_address_pool_association.http1</title>
<path fill="none" stroke="black" d="M879.75,-433.55C912.11,-423.39 954.77,-410 989.73,-399.03"/>
<polygon fill="black" stroke="black" points="990.87,-402.34 999.37,-396 988.78,-395.66 990.87,-402.34"/>
</g>
<!-- [root] provider.azurerm (close)&#45;&gt;[root] azurerm_virtual_machine.http -->
<g id="edge50" class="edge">
<title>[root] provider.azurerm (close)&#45;&gt;[root] azurerm_virtual_machine.http</title>
<path fill="none" stroke="black" d="M722.42,-442.32C601.25,-434.25 398.75,-418.97 214.48,-396.06"/>
<polygon fill="black" stroke="black" points="214.68,-392.56 204.33,-394.79 213.81,-399.5 214.68,-392.56"/>
</g>
<!-- [root] provider.azurerm (close)&#45;&gt;[root] azurerm_virtual_machine.http1 -->
<g id="edge51" class="edge">
<title>[root] provider.azurerm (close)&#45;&gt;[root] azurerm_virtual_machine.http1</title>
<path fill="none" stroke="black" d="M740.7,-438.11C660.5,-428.21 539.55,-412.81 424.67,-396.14"/>
<polygon fill="black" stroke="black" points="425.05,-392.66 414.65,-394.68 424.04,-399.59 425.05,-392.66"/>
</g>
<!-- [root] provider.random (close) -->
<g id="node31" class="node">
<title>[root] provider.random (close)</title>
<ellipse fill="none" stroke="black" cx="382.53" cy="-450" rx="117.35" ry="18"/>
<text text-anchor="middle" x="382.53" y="-445.8" font-family="Times,serif" font-size="14.00">[root] provider.random (close)</text>
</g>
<!-- [root] provider.random (close)&#45;&gt;[root] random_id.randomId -->
<g id="edge52" class="edge">
<title>[root] provider.random (close)&#45;&gt;[root] random_id.randomId</title>
<path fill="none" stroke="black" d="M265.43,-448.5C168.74,-445.3 42.28,-433.73 9.53,-396 -1.79,-382.96 -5.46,-310.1 12.53,-288 29.56,-267.09 93.24,-253.01 146.23,-244.66"/>
<polygon fill="black" stroke="black" points="146.97,-248.08 156.33,-243.11 145.91,-241.16 146.97,-248.08"/>
</g>
<!-- [root] root -->
<g id="node32" class="node">
<title>[root] root</title>
<ellipse fill="none" stroke="black" cx="830.53" cy="-522" rx="46.9" ry="18"/>
<text text-anchor="middle" x="830.53" y="-517.8" font-family="Times,serif" font-size="14.00">[root] root</text>
</g>
<!-- [root] root&#45;&gt;[root] meta.count&#45;boundary (EachMode fixup) -->
<g id="edge55" class="edge">
<title>[root] root&#45;&gt;[root] meta.count&#45;boundary (EachMode fixup)</title>
<path fill="none" stroke="black" d="M873.66,-515.09C951.85,-504.38 1119.24,-481.45 1231.12,-466.12"/>
<polygon fill="black" stroke="black" points="1231.66,-469.58 1241.1,-464.76 1230.71,-462.65 1231.66,-469.58"/>
</g>
<!-- [root] root&#45;&gt;[root] provider.azurerm (close) -->
<g id="edge56" class="edge">
<title>[root] root&#45;&gt;[root] provider.azurerm (close)</title>
<path fill="none" stroke="black" d="M830.53,-503.7C830.53,-495.98 830.53,-486.71 830.53,-478.11"/>
<polygon fill="black" stroke="black" points="834.03,-478.1 830.53,-468.1 827.03,-478.1 834.03,-478.1"/>
</g>
<!-- [root] root&#45;&gt;[root] provider.random (close) -->
<g id="edge57" class="edge">
<title>[root] root&#45;&gt;[root] provider.random (close)</title>
<path fill="none" stroke="black" d="M787.98,-514.35C715.73,-503.06 567.6,-479.92 471.79,-464.95"/>
<polygon fill="black" stroke="black" points="472.24,-461.48 461.82,-463.39 471.16,-468.39 472.24,-461.48"/>
</g>
</g>
</svg>
